<?xml version="1.0" standalone="no"?><!DOCTYPE svg PUBLIC "-//W3C//DTD SVG 1.1//EN" "http://www.w3.org/Graphics/SVG/1.1/DTD/svg11.dtd"><svg t="1702442083350" class="icon" viewBox="0 0 1024 1024" version="1.1" xmlns="http://www.w3.org/2000/svg" p-id="4078" xmlns:xlink="http://www.w3.org/1999/xlink" width="200" height="200"><path d="M704 544v-96h32v96h-32z m0-128v160h-32v-160h32z m-64 160v-160h32v160h-32z m-256-128v96h-32v-96h32z m-64 128v-160h32v160h-32z m0-160v160H288v-160h32z m320 512h96v32h-96v-32z m64-32h64v32h-64v-32z m64 32v-96h32v96h-32z m32-32v-96h32v96h-32z m64-160v96h-32v-96h32z m0 64v-192h32v192h-32z m64-192v64h-32v-64h32z m32 0v-192h32v192h-32z m-32 32v-256h32v256h-32z m-32-224v-64h32v64h-32z m-32 0V224h32v192h-32z m-32-96V192h32v128h-32z m-32-64V192h32v64h-32z m0-96h96v32h-96V160z m32-32h96v32h-96V128z m-128-32h256v32h-256V96z m288 0h-256V64h256v32zM608 1024h-192v-32h192v32z m96-32H320v-32h384v32z m-320-32H256v-32h128v32z m-64-32H256v-32h64v32z m-96 0v-64h32v64H224z m-32-32v-96h32v96H192z m-32-32v-96h32v96H160z m-32-32v-160h32v160H128z m-32-64v-160h32v160H96z m-32-96v-96h32v96H64z m-32-32v-256h32v256H32z m32-192v-96h32v96H64z m32-32V256h32v160H96z m32-32V192h32v192H128z m32-96V192h32v96H160z m32-96h32v32H192V192zM160 160h64v32H160V160z m32-32h96v32H192V128z m32-32h96v32H224V96z m160 0H256V64h128v32z m480-32H320V32h544v32z m32-32H384V0h512v32z" fill="#020100" p-id="4079"></path><path d="M800 352h32v32h-32v-32z m32 0h-64v-32h64v32z m0-32h-96V288h96v32z m-32-32h-96V256h96v32zM96 416h32v32H96v-32z m128-32H160v-32h64v32z m-64-64h96v32H160v-32z m32-32h96v32H192V288z m128 0H192V256h128v32z m480-32H192V224h608v32z m-32-32H224V192h544v32zM256 160h544v32H256V160z m576 0H288V128h544v32z m-128-32H352V96h352v32z m32-32h-288V64h288v32z" fill="#975D37" p-id="4080"></path><path d="M544 960h-32v-32h32v32z m-96-160h-32v-32h32v32z m64 64h-96v-32h96v32z m32-32h-128v-32h128v32z m-160 0v-64h32v64h-32z m-32-32v-96h32v96h-32z m-32-32v-64h32v64h-32z m224-96h-96v-32h96v32z m-96-64h128v32h-128v-32z" fill="#EC8F4C" p-id="4081"></path><path d="M256 896v-32h32v32H256z m-32-32v-32h32v32H224z m-64-96v-32h32v32H160z m-32-96v-64h32v64H128z m-64-96v-128h32v128H64z m64-160v-32h32v32H128z m32-96V288h32v32H160z m64-128V160h32v32H224z m128-96v32h-32V96h32z m32-32h64v32h-64V64z m416 128v32h-32V192h32z m32 64v32h-32V256h32z m32 64v64h-32v-64h32z m64 96v32h-32v-32h32z m0 160v32h-32v-32h32z m-64 96v64h-32v-64h32z m-32 128h-32v-32h32v32z m-32 32h-32v-32h32v32z m-32 64h-32v-32h32v32z m-64 32h-32v-32h32v32z m-64 32h-32v-32h32v32z m-224 0h-32v-32h32v32z" fill="#45402D" p-id="4082"></path><path d="M352 576v-32h32v32h-32z m0-128v-32h32v32h-32z m-64 0v96H256v-96h32z m448 96v32h-32v-32h32z m0-128v32h-32v-32h32z m-96 32v96h-32v-96h32z m224-64v32h-32v-32h32z m64 64v128h-32v-128h32z m-32 128v32h-32v-32h32z m-32 32v64h-32v-64h32z m-32 128v32h-32v-32h32z m-64 96v32h-32v-32h32z m-32 64h-32v-32h32v32z m-64 32h-32v-32h32v32z m-64 32h-64v-32h64v32z m-128 0h-64v-32h64v32z m-160-32v-32h32v32h-32z m-128-128v-32h32v32H192z m-32-64v-32h32v32H160z m-64-128v-32h32v32H96z" fill="#AA862E" p-id="4083"></path><path d="M736 544h160v32h-160v-32z m160 0h-160v-32h160v32z m0-32h-160v-32h160v32z m0-32h-160v-32h160v32z m0-32h-160v-32h160v32z m-256 128h-256v-32h256v32z m-32-32h-224v-32h224v32z m0-32h-224v-32h224v32z m0-32h-224v-32h224v32z m32-32h-256v-32h256v32zM288 576H96v-32h192v32z m-32-32H96v-32h160v32z m0-32H96v-32h160v32z m0-32H96v-32h160v32z m32-32H128v-32h160v32z m224 512h-32v-32h32v32z m128-32h-288v-32h288v32z m96-64h-224v-32h224v32z m32-32h-224v-32h224v32z m32-32H448v-32h352v32z m0-32H384v-32h416v32z m32-32H384v-32h448v32z m-128 160H288v-32h416v32z m-288-32H256v-32h160v32z m-32-32H224v-32h160v32z m-32-32H224v-32h128v32z m-32-32H192v-32h128v32z m0-32H192v-32h128v32z m512-32H160v-32h672v32z m0-32h-288v-32h288v32z m-384 0H160v-32h288v32z m384-32h-256v-32h256v32z m-384 0H160v-32h288v32z m416-32H128v-32h736v32z m-32-192H160v-32h672v32z m-32-32H224v-32h576v32z m-32-32H256v-32h512v32z m-32-32H288V288h448v32z m-32-32H320V256h384v32z" fill="#FAC841" p-id="4084"></path></svg>