<?xml version="1.0" standalone="no"?><!DOCTYPE svg PUBLIC "-//W3C//DTD SVG 1.1//EN" "http://www.w3.org/Graphics/SVG/1.1/DTD/svg11.dtd"><svg t="1702442004053" class="icon" viewBox="0 0 1024 1024" version="1.1" xmlns="http://www.w3.org/2000/svg" p-id="2502" xmlns:xlink="http://www.w3.org/1999/xlink" width="200" height="200"><path d="M667 301.9c93.2-24.6 188.7 13.9 241.9 89 2.1-25.6 0.1-52-7.1-78.3-32.9-120.1-156.4-191.8-275.7-160.2C506.7 184 436.5 306.9 469.4 427.1c7.2 26.3 19 50.1 33.9 71.2 7.5-91.3 70.4-171.7 163.7-196.4" p-id="2503" fill="#d4237a"></path><path d="M427.7 263.7C452.2 173 535 111.1 629.4 102.8c-22.1-14.2-46.9-25.4-74.2-32.1-124.9-30.6-251.6 38.8-283 154.9-31.4 116.1 44.3 235 169.3 265.6 27.4 6.7 54.7 8.3 81.3 6-78.6-50.6-119.6-142.8-95.1-233.5" p-id="2504" fill="#d4237a"></path><path d="M247.2 479.982c-68.5-66.1-81.2-164.1-39.8-244.2-24.1 10.4-47 24.6-67.1 43.1-92 84.5-95.4 221.7-7.7 306.3 87.8 84.6 233.5 84.7 325.5 0.2 20.2-18.5 35.8-39.6 47.4-62.1-85.9 37.2-189.7 22.9-258.3-43.3" p-id="2505" fill="#d4237a"></path><path d="M607 760c-24.5 90.7-107.2 152.6-201.7 161 22.1 14.2 46.9 25.3 74.2 32 124.9 30.5 251.6-38.9 283-155 31.4-116.1-44.4-235-169.4-265.6-27.4-6.7-54.7-8.3-81.3-6C590.4 577.1 631.5 669.2 607 760" p-id="2506" fill="#d4237a"></path><path d="M778.8 543.433c70.8 65.9 86.8 166.5 48.1 250.2 23.8-11.5 46.1-26.8 65.6-46.5 89.1-89.9 87.8-231.2-2.8-315.6-90.6-84.4-236.3-80-325.4 10-19.5 19.7-34.4 41.9-45.3 65.4 84.7-40.9 189-29.4 259.8 36.5" p-id="2507" fill="#d4237a"></path><path d="M343.6 725.1c-91.6 29-189.1-3.1-246.5-73.2-0.6 25 2.9 50.5 11.6 75.6C148.5 842.3 275.9 905.2 393.2 868c117.3-37.2 180.1-160.4 140.2-275.3-8.7-25.2-21.8-47.6-37.9-67.3-2.2 89-60.3 170.6-151.9 199.7" p-id="2508" fill="#d4237a"></path></svg>